<svg xmlns="http://www.w3.org/2000/svg" xmlns:xlink="http://www.w3.org/1999/xlink" data-name="Camada 1" viewBox="0 0 350 350"><defs><linearGradient id="a" x1="51.5" x2="51.5" y1="159" y2="188.4" data-name="Gradiente sem nome 7" gradientUnits="userSpaceOnUse"><stop offset="0" stop-color="#f2cb05"/><stop offset="1" stop-color="#f29f05"/></linearGradient><linearGradient xlink:href="#a" id="b" x1="298.4" x2="298.4" y1="159" y2="188.4" data-name="Gradiente sem nome 7"/><linearGradient xlink:href="#a" id="c" x1="136.8" x2="136.8" y1="98.3" y2="139.3" data-name="Gradiente sem nome 7"/><linearGradient xlink:href="#a" id="d" x1="213.2" x2="213.2" y1="98.3" y2="139.3" data-name="Gradiente sem nome 7"/><linearGradient xlink:href="#a" id="e" x1="175" x2="175" y1="98.3" y2="120.7" data-name="Gradiente sem nome 7"/><linearGradient xlink:href="#a" id="f" x1="175" x2="175" y1="2.3" y2="90.3" data-name="Gradiente sem nome 7"/><linearGradient xlink:href="#a" id="g" x1="175" x2="175" y1="116.8" y2="347.7" data-name="Gradiente sem nome 7"/></defs><path d="M8 188.4h48.9L99 159.1H8c-2.1 0-4 1.8-4 4v21.4c0 2.2 1.8 4 4 4Z" style="stroke-width:0;fill:url(#a)"/><path d="M342 188.4c2.1 0 4-1.8 4-4V163c0-2.2-1.8-4-4-4h-91.1c16.8 11.7 32.7 22.8 42.2 29.3h49Z" style="stroke-width:0;fill:url(#b)"/><path d="M146.2 98.3h-18.7v41l18.7-13V98.4Z" style="stroke-width:0;fill:url(#c)"/><path d="M222.6 139.3v-41h-18.7v27.9c5.6 3.9 12 8.4 18.7 13.1" style="fill:url(#d);stroke-width:0"/><path d="M168.1 111c4.2-2.9 9.7-2.9 13.8 0 0 0 5.4 3.7 13.9 9.6V98.3h-41.6v22.3l13.9-9.7Z" style="stroke-width:0;fill:url(#e)"/><path d="M179 42.9v-7.4h31.6c2.2 0 4-1.8 4-4V6.4c0-2.2-1.8-4-4-4h-35.7c-2.2 0-4 1.8-4 4V43c-24.4 2-43.6 22.4-43.6 47.4h95.1c0-24.9-19.1-45.4-43.5-47.4Z" style="stroke-width:0;fill:url(#f)"/><path d="M346 339.6h-16V196.4h-25.9c3.9 4.2 4.3 10.4 1.1 15.1-2.2 3.1-5.8 5-9.5 5.1v123h-8V204.1l5.4 3.7c1.7 1.2 4.2.9 5.6-1 1.3-1.8.8-4.3-1-5.6-.3-.2-119.9-83.6-120.2-83.7-1.3-1-3.1-1-4.5 0-30.5 21.2-89.9 62.6-120.2 83.7-1.8 1.3-2.2 3.7-1 5.6 1.3 1.8 3.8 2.3 5.6 1l5.4-3.7v135.5h-8v-123c-3.8-.1-7.3-2-9.5-5.1-3.3-4.9-2.7-11 1-15H20.4v143.2H4c-2.2 0-4 1.8-4 4s1.8 4 4 4h342c2.2 0 4-1.8 4-4s-1.8-4-4-4Zm-125.1-119h25.6c1.8 0 3.3 1.5 3.3 3.3v115.7h-32.2V223.9c0-1.8 1.5-3.3 3.3-3.3m-29.8 119h-32.2V223.9c0-1.8 1.5-3.3 3.3-3.3h25.6c1.8 0 3.3 1.5 3.3 3.3zM175 156.5c10.3 0 18.7 8.4 18.7 18.7s-8.4 18.7-18.7 18.7-18.7-8.4-18.7-18.7 8.4-18.7 18.7-18.7m-74.8 67.4c0-1.8 1.5-3.3 3.3-3.3h25.6c1.8 0 3.3 1.5 3.3 3.3v115.7h-32.2z" style="stroke-width:0;fill:url(#g)"/></svg>